<svg width="500" height="500" viewBox="0 0 500 500" fill="none" xmlns="http://www.w3.org/2000/svg">
<g clip-path="url(#clip0_50_9)">
<g clip-path="url(#clip1_50_9)">
<path d="M299.737 34.3615C304.519 31.0058 309.166 27.1454 314.458 22.6613C337.602 1.6701 348.557 -24.0816 348.557 -24.0816C348.557 -24.0816 321.347 -16.2495 298.203 4.74172C295.221 7.07394 292.795 9.79827 290.317 11.9952C293.422 4.39953 296.801 -4.53195 300.415 -13.2561C313.086 -50.1089 309.323 -85.354 309.323 -85.354C309.323 -85.354 284.777 -59.8385 272.724 -22.7003C270.039 -15.2173 267.837 -7.95379 266.23 -0.488956C264.833 -9.4035 262.173 -19.3322 259.58 -29.0084C248.307 -71.079 222.381 -101.197 222.381 -101.197C222.381 -101.197 214.852 -62.6558 226.26 -20.0803C228.988 -9.89926 232.018 -0.610732 234.761 7.94308C229.705 2.53432 224.166 -2.65502 218.032 -8.04566C188.632 -33.6257 155.009 -44.0054 155.009 -44.0054C155.009 -44.0054 169.328 -11.7693 198.772 13.9789C206.148 20.2996 212.899 25.9756 220.143 30.7982C216.764 29.6295 212.931 29.1235 209.687 28.4596C179.148 21.8525 151.667 28.675 151.667 28.675C151.667 28.675 174.099 45.7511 204.57 52.1058C211.142 53.411 217.097 54.4307 223.168 54.8779C219.938 56.2846 216.685 57.6071 213.506 59.5412C189.286 71.8026 174.131 91.6452 174.131 91.6452C174.131 91.6452 198.793 91.8008 223.686 79.359C231.413 75.2143 239.309 71.0245 244.966 66.8935C244.288 68.067 256.321 56.0951 259.894 49.9073L273.511 100.729L280.747 98.7897L266.814 46.7904C273.535 50.6709 289.612 55.4717 288.769 54.3449C296.154 54.9813 304.666 54.7748 313.43 54.5005C340.766 52.8574 362.489 40.3633 362.489 40.3633C362.489 40.3633 339.948 30.6212 312.191 32.377C306.823 33.545 303.238 33.9645 299.737 34.3615Z" fill="white"/>
</g>
<g clip-path="url(#clip2_50_9)">
<path d="M49.6769 284.645C54.4592 281.289 59.1063 277.429 64.3979 272.945C87.5415 251.953 98.4974 226.202 98.4974 226.202C98.4974 226.202 71.2868 234.034 48.1432 255.025C45.1609 257.357 42.7345 260.082 40.257 262.279C43.3621 254.683 46.7406 245.751 50.355 237.027C63.0259 200.174 59.2634 164.929 59.2634 164.929C59.2634 164.929 34.7169 190.445 22.6636 227.583C19.9791 235.066 17.777 242.33 16.1699 249.794C14.7733 240.88 12.1129 230.951 9.52016 221.275C-1.75263 179.204 -27.6788 149.086 -27.6788 149.086C-27.6788 149.086 -35.2078 187.628 -23.7998 230.203C-21.0717 240.384 -18.0418 249.673 -15.2989 258.226C-20.3555 252.818 -25.8943 247.628 -32.0282 242.238C-61.4279 216.658 -95.0515 206.278 -95.0515 206.278C-95.0515 206.278 -80.7324 238.514 -51.2876 264.262C-43.9125 270.583 -37.161 276.259 -29.9168 281.082C-33.2961 279.913 -37.1292 279.407 -40.3733 278.743C-70.9118 272.136 -98.393 278.958 -98.393 278.958C-98.393 278.958 -75.9613 296.034 -45.4905 302.389C-38.9182 303.694 -32.9635 304.714 -26.8916 305.161C-30.122 306.568 -33.3749 307.89 -36.5541 309.825C-60.7743 322.086 -75.9289 341.929 -75.9289 341.929C-75.9289 341.929 -51.2674 342.084 -26.3741 329.642C-18.6468 325.498 -10.7513 321.308 -5.09449 317.177C-5.77204 318.35 6.2609 306.379 9.83345 300.191L23.451 351.012L30.6871 349.073L16.754 297.074C23.4752 300.954 39.5515 305.755 38.7084 304.628C46.0936 305.265 54.6055 305.058 63.3699 304.784C90.7058 303.141 112.429 290.647 112.429 290.647C112.429 290.647 89.888 280.905 62.1314 282.66C56.7629 283.828 53.1778 284.248 49.6769 284.645Z" fill="white"/>
</g>
<g clip-path="url(#clip3_50_9)">
<path d="M299.737 534.305C304.519 530.949 309.166 527.089 314.458 522.605C337.602 501.613 348.557 475.862 348.557 475.862C348.557 475.862 321.347 483.694 298.203 504.685C295.221 507.017 292.795 509.742 290.317 511.939C293.422 504.343 296.801 495.411 300.415 486.687C313.086 449.835 309.323 414.589 309.323 414.589C309.323 414.589 284.777 440.105 272.724 477.243C270.039 484.726 267.837 491.99 266.23 499.454C264.833 490.54 262.173 480.611 259.58 470.935C248.307 428.864 222.381 398.746 222.381 398.746C222.381 398.746 214.852 437.288 226.26 479.863C228.988 490.044 232.018 499.333 234.761 507.886C229.705 502.478 224.166 497.288 218.032 491.898C188.632 466.318 155.009 455.938 155.009 455.938C155.009 455.938 169.328 488.174 198.772 513.922C206.148 520.243 212.899 525.919 220.143 530.742C216.764 529.573 212.931 529.067 209.687 528.403C179.148 521.796 151.667 528.618 151.667 528.618C151.667 528.618 174.099 545.694 204.57 552.049C211.142 553.354 217.097 554.374 223.168 554.821C219.938 556.228 216.685 557.55 213.506 559.485C189.286 571.746 174.131 591.589 174.131 591.589C174.131 591.589 198.793 591.744 223.686 579.302C231.413 575.158 239.309 570.968 244.966 566.837C244.288 568.01 256.321 556.039 259.894 549.851L273.511 600.672L280.747 598.733L266.814 546.734C273.535 550.614 289.612 555.415 288.769 554.288C296.154 554.925 304.666 554.718 313.43 554.444C340.766 552.801 362.489 540.307 362.489 540.307C362.489 540.307 339.948 530.565 312.191 532.32C306.823 533.488 303.238 533.908 299.737 534.305Z" fill="white"/>
</g>
<g clip-path="url(#clip4_50_9)">
<path d="M549.677 284.645C554.459 281.289 559.106 277.429 564.398 272.945C587.542 251.953 598.497 226.202 598.497 226.202C598.497 226.202 571.287 234.034 548.143 255.025C545.161 257.357 542.734 260.082 540.257 262.279C543.362 254.683 546.741 245.751 550.355 237.027C563.026 200.174 559.263 164.929 559.263 164.929C559.263 164.929 534.717 190.445 522.664 227.583C519.979 235.066 517.777 242.33 516.17 249.794C514.773 240.88 512.113 230.951 509.52 221.275C498.247 179.204 472.321 149.086 472.321 149.086C472.321 149.086 464.792 187.628 476.2 230.203C478.928 240.384 481.958 249.673 484.701 258.226C479.645 252.818 474.106 247.628 467.972 242.238C438.572 216.658 404.948 206.278 404.948 206.278C404.948 206.278 419.268 238.514 448.712 264.262C456.087 270.583 462.839 276.259 470.083 281.082C466.704 279.913 462.871 279.407 459.627 278.743C429.088 272.136 401.607 278.958 401.607 278.958C401.607 278.958 424.039 296.034 454.51 302.389C461.082 303.694 467.037 304.714 473.108 305.161C469.878 306.568 466.625 307.89 463.446 309.825C439.226 322.086 424.071 341.929 424.071 341.929C424.071 341.929 448.733 342.084 473.626 329.642C481.353 325.498 489.249 321.308 494.906 317.177C494.228 318.35 506.261 306.379 509.833 300.191L523.451 351.012L530.687 349.073L516.754 297.074C523.475 300.954 539.551 305.755 538.708 304.628C546.094 305.265 554.606 305.058 563.37 304.784C590.706 303.141 612.429 290.647 612.429 290.647C612.429 290.647 589.888 280.905 562.131 282.66C556.763 283.828 553.178 284.248 549.677 284.645Z" fill="white"/>
</g>
</g>
<defs>
<clipPath id="clip0_50_9">
<rect width="500" height="500" fill="white"/>
</clipPath>
<clipPath id="clip1_50_9">
<rect width="223" height="223" fill="white" transform="translate(113 -79.2834) rotate(-15)"/>
</clipPath>
<clipPath id="clip2_50_9">
<rect width="223" height="223" fill="white" transform="translate(-137.06 171) rotate(-15)"/>
</clipPath>
<clipPath id="clip3_50_9">
<rect width="223" height="223" fill="white" transform="translate(113 420.66) rotate(-15)"/>
</clipPath>
<clipPath id="clip4_50_9">
<rect width="223" height="223" fill="white" transform="translate(362.94 171) rotate(-15)"/>
</clipPath>
</defs>
</svg>
